<svg width="66" height="60" viewBox="0 0 66 60" fill="none" xmlns="http://www.w3.org/2000/svg">
<path d="M5.84936 6.09996C9.41286 2.51704 14.1924 0.421402 19.2289 0.233541C24.2655 0.0456808 29.1863 1.7795 33.0042 5.08709C36.8186 1.78501 41.733 0.0531414 46.7634 0.238208C51.7939 0.423275 56.5692 2.51162 60.1334 6.08515C63.6975 9.65869 65.7874 14.4537 65.9846 19.5102C66.1819 24.5666 64.472 29.5114 61.1972 33.3546L37.3446 57.4101C36.2487 58.5121 34.779 59.157 33.23 59.2154C31.681 59.2738 30.1673 58.7414 28.9924 57.725L28.6545 57.4132L4.80494 33.3546C1.5319 29.5148 -0.178821 24.5745 0.0148116 19.5216C0.208444 14.4686 2.29216 9.67528 5.84936 6.09996ZM10.1929 10.4664C7.6809 12.9923 6.23289 16.3936 6.14938 19.9643C6.06587 23.5351 7.35328 27.001 9.74441 29.6428L10.1929 30.1184L33.0011 53.0467L49.2909 36.668L38.432 25.7519L35.1759 29.0252C34.3203 29.8857 33.3045 30.5684 32.1864 31.0343C31.0684 31.5001 29.87 31.7401 28.6597 31.7404C26.2154 31.7409 23.871 30.7654 22.1422 29.0283C20.4135 27.2912 19.4419 24.9349 19.4413 22.4778C19.4408 20.0206 20.4112 17.6638 22.1392 15.926L28.5961 9.4319C26.0264 7.37028 22.8101 6.29663 19.5241 6.40359C16.2381 6.51055 13.0976 7.79112 10.666 10.0155L10.1929 10.4664ZM36.2603 19.1992C36.8363 18.6203 37.6175 18.2951 38.432 18.2951C39.2466 18.2951 40.0278 18.6203 40.6038 19.1992L53.6344 32.2985L55.8093 30.1184C58.3633 27.5527 59.8174 24.0842 59.8605 20.4547C59.9035 16.8252 58.5322 13.3228 56.0397 10.6966C53.5473 8.07038 50.1315 6.52879 46.523 6.40151C42.9145 6.27423 39.3997 7.57138 36.7303 10.0155L36.2603 10.4664L26.4858 20.2924C25.9533 20.8273 25.6348 21.5401 25.5906 22.2954C25.5465 23.0508 25.7797 23.7962 26.2462 24.3901L26.4858 24.6588C27.0179 25.194 27.7269 25.5143 28.4783 25.5587C29.2298 25.6031 29.9713 25.3686 30.5621 24.8997L30.8293 24.6588L36.2603 19.1992Z" fill="white"/>
</svg>
