<svg width="66" height="56" viewBox="0 0 66 56" fill="none" xmlns="http://www.w3.org/2000/svg">
<path d="M66 52.4842C65.9945 53.2807 65.6793 54.0431 65.1225 54.6066C64.5656 55.1701 63.8119 55.4896 63.024 55.4959H8.976C8.18644 55.4951 7.42949 55.1775 6.87147 54.6127C6.31345 54.048 6 53.2825 6 52.4842V49.4301H60V13.9449L36 35.7819L6 8.48563V3.93624C6 3.13186 6.31607 2.36043 6.87868 1.79164C7.44129 1.22286 8.20435 0.90332 9 0.90332H63C63.7957 0.90332 64.5587 1.22286 65.1213 1.79164C65.6839 2.36043 66 3.13186 66 3.93624V52.4842ZM13.302 6.96916L36 27.6234L58.698 6.96916H13.302ZM0 37.2984H24V43.3642H0V37.2984ZM0 22.1338H15V28.1996H0V22.1338Z" fill="white"/>
</svg>
