<svg width="66" height="59" viewBox="0 0 66 59" fill="none" xmlns="http://www.w3.org/2000/svg">
<path d="M42 0.219745C44.1069 0.21949 46.1766 0.783664 48.0013 1.85554C49.8259 2.92742 51.341 4.46921 52.3942 6.3259C53.4475 8.18259 54.0018 10.2887 54.0014 12.4325C54.001 14.5764 53.446 16.6823 52.392 18.5386L66 18.5355V24.6408H60V55.1671C60 55.9767 59.6839 56.7532 59.1213 57.3256C58.5587 57.8981 57.7957 58.2197 57 58.2197H9C8.20435 58.2197 7.44129 57.8981 6.87868 57.3256C6.31607 56.7532 6 55.9767 6 55.1671V24.6408H0V18.5355L13.608 18.5386C12.1196 15.916 11.6421 12.8242 12.2681 9.86353C12.8942 6.90284 14.5792 4.28453 16.996 2.51701C19.4128 0.74949 22.3888 -0.0411028 25.3462 0.298743C28.3037 0.63859 31.0315 2.08462 33 4.35606C34.1238 3.05375 35.5082 2.01095 37.0604 1.29756C38.6126 0.584176 40.2968 0.216691 42 0.219745ZM30 24.6408H12V52.1145H30V24.6408ZM54 24.6408H36V52.1145H54V24.6408ZM24 6.32501C22.4431 6.31792 20.9444 6.92694 19.8205 8.02343C18.6967 9.11991 18.0358 10.618 17.9774 12.2011C17.919 13.7843 18.4676 15.3286 19.5075 16.5077C20.5473 17.6869 21.9969 18.4085 23.55 18.5203L24 18.5355H30V12.4303C30.0001 10.9713 29.4867 9.56054 28.5528 8.45348C27.6189 7.34642 26.3263 6.61625 24.909 6.39522L24.447 6.34027L24 6.32501ZM42 6.32501C40.4863 6.32452 39.0283 6.90625 37.9184 7.95358C36.8084 9.0009 36.1285 10.4364 36.015 11.9724L36 12.4303V18.5355H42C43.5137 18.536 44.9717 17.9543 46.0816 16.907C47.1916 15.8596 47.8715 14.4241 47.985 12.8882L48 12.4303C48 10.8111 47.3679 9.25815 46.2426 8.1132C45.1174 6.96824 43.5913 6.32501 42 6.32501Z" fill="white"/>
</svg>
