<svg width="66" height="66" viewBox="0 0 66 66" fill="none" xmlns="http://www.w3.org/2000/svg">
<path d="M14.0014 41.4392L0 52.5368V3.39046C0 2.54953 0.331121 1.74304 0.920521 1.14841C1.50992 0.553785 2.30932 0.219727 3.14286 0.219727H50.2857C51.1193 0.219727 51.9187 0.553785 52.5081 1.14841C53.0975 1.74304 53.4286 2.54953 53.4286 3.39046V41.4392H14.0014ZM11.8266 35.0978H47.1429V6.56119H6.28571V39.4892L11.8266 35.0978ZM22 47.7807H54.1734L59.7143 52.1722V19.2441H62.8571C63.6907 19.2441 64.4901 19.5782 65.0795 20.1728C65.6689 20.7674 66 21.5739 66 22.4148V65.2197L51.9986 54.1222H25.1429C24.3093 54.1222 23.5099 53.7881 22.9205 53.1935C22.3311 52.5989 22 51.7924 22 50.9514V47.7807Z" fill="white"/>
</svg>
