<svg width="171" height="55" viewBox="0 0 171 55" fill="none" xmlns="http://www.w3.org/2000/svg">
<path d="M14.0985 33.8537C14.1824 33.9021 14.2244 33.9586 14.1964 34.0394C14.1824 34.112 14.1265 34.1605 14.0426 34.2089L13.8468 34.3219C13.7349 34.3865 13.651 34.4188 13.5392 34.4188C13.4273 34.4188 13.3434 34.3865 13.2595 34.3381L10.1131 32.5217C10.0292 32.4732 9.97326 32.4248 9.95928 32.3521C9.94529 32.2795 9.98724 32.2229 10.0991 32.1584L10.6305 31.8516L14.0985 33.8537ZM3.42879 31.2784L6.5472 29.4781L8.43503 30.568L7.19046 31.2865C6.3794 31.7547 5.97386 32.2149 5.95988 32.6912C5.93191 33.1594 6.36541 33.6357 7.23241 34.1363L10.4068 35.9688C11.2877 36.4774 12.1268 36.7358 12.9378 36.7196C13.7489 36.7035 14.546 36.4694 15.3571 36.0011L16.9792 35.0647C17.7763 34.6045 18.1818 34.1443 18.2098 33.6761C18.2377 33.2079 17.8182 32.7073 16.9372 32.1987L13.4832 30.2047L15.399 29.0987L18.853 31.0927C18.9369 31.1412 18.9789 31.1977 18.9929 31.2542C18.9929 31.3188 18.923 31.3753 18.8251 31.4318L18.5873 31.569C18.3776 31.6901 18.2657 31.8032 18.2517 31.9081C18.2377 32.013 18.3356 32.1341 18.5454 32.2552L19.6361 32.8849C19.8599 33.0141 20.0696 33.0706 20.2374 33.0545C20.4053 33.0383 20.601 32.9737 20.8108 32.8526L21.7337 32.3198C22.5448 31.8516 22.9643 31.3834 22.9923 30.9151C23.0063 30.455 22.5728 29.9625 21.6918 29.4539L18.2377 27.4599L18.6433 27.2258C18.867 27.0966 18.9649 26.9755 18.9509 26.8705C18.9509 26.7737 18.8251 26.6687 18.6293 26.5557L17.6364 25.9825C17.3847 25.8372 17.175 25.7484 17.0072 25.7484C16.8394 25.7484 16.6576 25.821 16.4338 25.9502L16.0283 26.1843L14.7278 25.4335C14.574 25.3447 14.4062 25.2963 14.1824 25.2963C13.9727 25.2882 13.7909 25.3286 13.651 25.4093L11.8331 26.4588C11.6933 26.5395 11.6373 26.6364 11.6513 26.7575C11.6653 26.8786 11.7352 26.9836 11.8891 27.0724L13.1896 27.8232L11.2738 28.9292L7.70787 26.8705C7.56803 26.7898 7.38624 26.7494 7.1625 26.7494C6.93875 26.7494 6.75696 26.806 6.58915 26.9028L1.21934 30.0029C0.995594 30.132 0.869739 30.237 0.869739 30.3339C0.869739 30.4307 1.02356 30.5518 1.27527 30.6971L2.26813 31.2703C2.4639 31.3834 2.64569 31.456 2.82748 31.4641C2.99529 31.4641 3.20505 31.4076 3.42879 31.2784Z" fill="#454055"/>
<path d="M27.1438 47.0473C27.1438 47.6771 27.4095 48.0242 27.9549 48.1131L32.3875 49.0901C33.4503 49.3323 34.3871 49.4212 35.1702 49.3404L38.6521 54.112C39.1975 54.8628 39.4632 54.9193 39.4632 54.2573L39.4631 51.8676C39.4631 51.2217 39.1974 50.5354 38.652 49.8169L37.5053 48.2506C38.0786 47.5644 38.3722 46.5875 38.3722 45.2957L38.3721 41.0168C38.372 40.3871 38.1064 39.9269 37.561 39.612L27.9404 34.0572C27.3951 33.7423 27.1294 33.8957 27.1294 34.5254L27.1295 36.1724C27.1295 36.8021 27.3952 37.2623 27.9405 37.5772L33.8835 41.0086L33.8835 42.3165C33.8836 44.1411 33.1565 44.9484 31.7162 44.7788L27.9547 43.9471C27.4094 43.8099 27.1437 44.0601 27.1437 44.6899L27.1438 47.0473Z" fill="#454055"/>
<path d="M13.565 46.4744C13.5649 47.1041 13.8306 47.2575 14.376 46.9426L18.9066 44.3266C19.4519 44.0118 19.7316 43.5435 19.7316 42.9138L19.7317 41.2668C19.7317 40.637 19.452 40.4756 18.9067 40.7905L14.3761 43.4064C13.8307 43.7213 13.565 44.1976 13.565 44.8274L13.565 46.4744ZM13.5651 41.6787C13.5651 42.3085 13.8308 42.4618 14.3761 42.147L18.9067 39.531C19.4521 39.2161 19.7318 38.7479 19.7318 38.1181L19.7318 36.4711C19.7318 35.8414 19.4522 35.6961 18.9068 36.011L14.3762 38.6269C13.8309 38.9418 13.5652 39.402 13.5652 40.0317L13.5651 41.6787ZM13.5648 52.3034C13.5647 52.9331 13.8304 53.1027 14.3758 52.7878L22.3603 48.1776C24.7235 46.8131 25.8981 44.7624 25.8982 42.0336L25.8984 36.7051C25.8984 36.0592 25.6327 35.9058 25.0874 36.2207L22.2348 37.8678C21.6894 38.1827 21.4097 38.6509 21.4097 39.2968L21.4095 44.5607C21.4095 44.9805 21.2277 45.2954 20.8642 45.5053L14.3759 49.2516C13.8305 49.5665 13.5648 50.0267 13.5648 50.6564L13.5648 52.3034Z" fill="#454055"/>
<path d="M38.8145 38.6945C39.0103 38.8075 39.22 38.8802 39.3878 38.8963C39.5556 38.9125 39.7514 38.8479 39.9752 38.7187L41.0659 38.089C41.2757 37.9679 41.3875 37.8549 41.3735 37.75C41.3596 37.645 41.2337 37.5239 41.0379 37.4109L38.353 35.8609C38.2411 35.7963 38.1852 35.7478 38.1852 35.6833C38.1852 35.6187 38.2411 35.5702 38.3251 35.5218L40.7582 34.1171C41.6392 33.6085 42.0727 33.116 42.0448 32.6478C42.0308 32.1876 41.6113 31.7194 40.8002 31.2512L39.8213 30.6861L45.4988 29.0392C45.8204 28.9504 45.9882 28.8696 46.0302 28.8131C46.0721 28.7405 45.9603 28.6436 45.7505 28.5225L43.7508 27.3681C43.583 27.2712 43.4292 27.2147 43.2614 27.2147C43.1075 27.2066 42.8558 27.2389 42.5062 27.3115L27.7253 31.6306C27.5295 31.7113 27.4316 31.8163 27.4316 31.9455C27.4316 32.0746 27.5155 32.1876 27.6833 32.2845L29.3474 33.2452C29.5711 33.3744 29.7529 33.447 29.9347 33.4551C30.1025 33.4551 30.3542 33.4228 30.6759 33.334L36.8847 31.5418L37.8915 32.1231C38.0034 32.1876 38.0594 32.2522 38.0454 32.3087C38.0594 32.3653 38.0034 32.4298 37.8915 32.4944L35.4863 33.883C34.6053 34.3916 34.1578 34.876 34.1858 35.3442C34.2138 35.8124 34.6193 36.2726 35.4304 36.7408L38.8145 38.6945Z" fill="#454055"/>
<rect width="14.2093" height="14.2093" transform="matrix(0.866041 -0.499972 0.866041 0.499972 14.2107 7.10425)" fill="#454055"/>
<rect width="14.2093" height="14.2093" transform="matrix(0.866009 0.500028 3.18609e-05 1 13.5647 8.07422)" fill="#454055"/>
<rect width="14.2093" height="14.2093" transform="matrix(0.866009 0.500028 3.18609e-05 1 0 33.5889)" fill="#454055"/>
<rect width="14.2093" height="14.2093" transform="matrix(0.866009 -0.500028 -3.18609e-05 1 27.1299 15.1793)" fill="#454055"/>
<rect width="14.2093" height="14.2093" transform="matrix(0.866009 -0.500028 -3.18609e-05 1 40.6946 40.6938)" fill="#454055"/>
<path d="M78.7836 21.2544C78.7836 21.4109 78.7326 21.5412 78.5796 21.6456C78.4521 21.7499 78.3246 21.7759 78.1716 21.7759H77.8145C77.6105 21.7759 77.483 21.7499 77.381 21.6456C77.279 21.5412 77.2535 21.4109 77.2535 21.2544V15.3869C77.2535 15.2304 77.279 15.1001 77.381 14.9697C77.483 14.8393 77.6105 14.7871 77.8145 14.7871H78.7836V21.2544ZM73.1221 7.14636H78.8091V10.6668H76.5394C75.0603 10.6668 73.9637 11.0319 73.1986 11.7882C72.4335 12.5184 72.0765 13.6919 72.0765 15.3087V21.2283C72.0765 22.8712 72.4335 24.0708 73.1986 24.801C73.9637 25.5311 75.0603 25.8962 76.5394 25.8962H79.4977C80.9513 25.8962 82.0479 25.5311 82.813 24.801C83.5781 24.0708 83.9861 22.8712 83.9861 21.2283V14.7871H87.4799V21.2283C87.4799 21.3848 87.4289 21.5152 87.3524 21.6195C87.2504 21.7238 87.0974 21.7499 86.9189 21.7499H86.4853C86.1028 21.7499 85.8223 21.8281 85.6437 21.9846C85.4652 22.141 85.3632 22.4279 85.3632 22.8191V24.8531C85.3632 25.2704 85.4652 25.5572 85.6437 25.6876C85.8223 25.818 86.1028 25.8962 86.4853 25.8962H88.1685C89.6476 25.8962 90.7697 25.5311 91.5348 24.801C92.2743 24.0708 92.6569 22.8712 92.6569 21.2283V14.7871H93.3964C93.8045 14.7871 94.085 14.6828 94.238 14.5003C94.391 14.3438 94.442 14.0569 94.442 13.6919V11.8403C94.442 11.3709 94.391 11.0319 94.238 10.8755C94.085 10.719 93.8045 10.6668 93.3964 10.6668H92.6569V8.24162C92.6569 7.95476 92.5804 7.72006 92.3764 7.51144C92.1978 7.30282 91.9683 7.19851 91.7133 7.19851H88.398C88.143 7.19851 87.9389 7.30282 87.7604 7.51144C87.5819 7.72006 87.4799 7.95476 87.4799 8.24162V10.6668H83.9861V4.01703C83.9861 3.75625 83.8841 3.52155 83.6801 3.31293C83.476 3.10431 83.221 3.02608 82.915 3.02608H73.1221C72.7141 3.02608 72.4335 3.07823 72.2805 3.2347C72.1275 3.39117 72.0765 3.73018 72.0765 4.19957V6.05109C72.0765 6.41618 72.1275 6.70303 72.2805 6.88558C72.4335 7.04204 72.7141 7.14636 73.1221 7.14636Z" fill="#454055"/>
<path d="M118.848 25.8962C119.205 25.8962 119.511 25.818 119.689 25.6876C119.868 25.5572 119.944 25.2704 119.944 24.8531V22.8191C119.944 22.4279 119.868 22.141 119.689 21.9846C119.511 21.8281 119.205 21.7499 118.848 21.7499H113.951C113.747 21.7499 113.62 21.7238 113.518 21.6195C113.416 21.5152 113.39 21.3848 113.39 21.2283V16.6908C113.39 15.0479 113.008 13.8483 112.243 13.1181C111.503 12.388 110.381 12.0229 108.902 12.0229H107.117L109.692 4.06919C109.845 3.62586 109.871 3.33901 109.82 3.20862C109.743 3.05216 109.488 3 109.106 3H105.459C105.153 3 104.923 3.05216 104.77 3.20862C104.617 3.33901 104.439 3.62586 104.235 4.06919L97.5788 24.827C97.5278 25.14 97.6043 25.4007 97.8083 25.6094C98.0124 25.818 98.2674 25.9223 98.5734 25.9223H101.608C102.016 25.9223 102.297 25.8701 102.475 25.7137C102.628 25.5572 102.807 25.2704 102.96 24.827L105.791 16.1432H107.627C107.831 16.1432 107.984 16.1953 108.06 16.2996C108.162 16.3779 108.213 16.5343 108.213 16.7429V21.2283C108.213 22.8712 108.57 24.0708 109.335 24.801C110.1 25.5311 111.197 25.8962 112.676 25.8962H118.848Z" fill="#454055"/>
<path d="M136.113 8.89356V15.5434H133.665C132.185 15.5434 131.063 15.9085 130.298 16.6647C129.559 17.421 129.176 18.5945 129.176 20.2113V21.2283C129.176 22.8712 129.559 24.0708 130.298 24.801C131.063 25.5311 132.185 25.8962 133.665 25.8962H136.852C138.281 25.8962 139.377 25.5311 140.142 24.801C140.907 24.0708 141.315 22.8712 141.315 21.2283V20.7328L144.427 22.141C144.733 22.2975 144.988 22.2975 145.192 22.0889C145.396 21.8803 145.498 21.6195 145.472 21.3326V18.9335C145.498 18.5162 145.447 18.2555 145.294 18.1251C145.166 17.9686 144.86 17.7861 144.427 17.5514L141.315 16.1171V12.0229H144.35C144.784 12.0229 145.09 11.9447 145.243 11.7621C145.396 11.5796 145.447 11.3188 145.447 10.9276V9.10218C145.447 8.60671 145.396 8.29377 145.243 8.13731C145.09 7.98084 144.784 7.90261 144.35 7.90261H137.209C136.878 7.90261 136.623 8.00692 136.419 8.21554C136.24 8.42416 136.138 8.63278 136.113 8.89356ZM136.087 21.2544C136.087 21.4109 136.036 21.5412 135.883 21.6456C135.756 21.7499 135.628 21.7759 135.475 21.7759H134.914C134.736 21.7759 134.583 21.7499 134.481 21.6456C134.404 21.5412 134.353 21.4109 134.353 21.2544V20.2895C134.353 20.133 134.404 19.9766 134.481 19.8723C134.583 19.7419 134.736 19.6637 134.914 19.6637H135.475C135.628 19.6637 135.756 19.7419 135.883 19.8723C136.036 19.9766 136.087 20.133 136.087 20.2895V21.2544ZM124.101 11.0059H125.733L123.158 18.9335C123.081 19.2464 123.107 19.5072 123.311 19.7158C123.515 19.9244 123.77 20.0287 124.076 20.0027H126.855C127.264 20.0287 127.57 19.9505 127.723 19.794C127.901 19.6376 128.054 19.3507 128.182 18.9335L130.757 11.0059H133.614C134.047 11.0059 134.328 10.9276 134.481 10.7451C134.634 10.5625 134.71 10.3018 134.71 9.91059V8.08515C134.71 7.58967 134.634 7.27674 134.481 7.12028C134.328 6.96381 134.047 6.88558 133.614 6.88558H132.109L133.002 4.1735C133.155 3.73018 133.18 3.44332 133.129 3.31293C133.053 3.15647 132.798 3.07823 132.415 3.07823H129.074C128.768 3.07823 128.513 3.15647 128.386 3.31293C128.233 3.44332 128.08 3.73018 127.952 4.1735L127.085 6.88558H124.101C123.693 6.88558 123.413 6.96381 123.26 7.12028C123.107 7.27674 123.056 7.58967 123.056 8.08515V9.91059C123.056 10.3018 123.107 10.5625 123.26 10.7451C123.413 10.9276 123.693 11.0059 124.101 11.0059Z" fill="#454055"/>
<path d="M153.021 25.8962H157.866C159.345 25.8962 160.468 25.5311 161.207 24.801C161.972 24.0708 162.355 22.8712 162.355 21.2283V8.24162H165.211C165.415 8.24162 165.543 8.29377 165.645 8.42416C165.747 8.55455 165.772 8.68494 165.772 8.84141V21.2283C165.772 21.3848 165.747 21.5152 165.645 21.6195C165.543 21.7238 165.415 21.7499 165.211 21.7499H164.446C164.063 21.7499 163.783 21.8281 163.579 21.9846C163.4 22.141 163.324 22.4279 163.324 22.8191V24.8531C163.324 25.2704 163.4 25.5572 163.579 25.6876C163.783 25.818 164.063 25.8962 164.446 25.8962H166.486C167.965 25.8962 169.062 25.5311 169.827 24.801C170.592 24.0708 170.949 22.8712 170.949 21.2283V8.73709C170.949 7.12028 170.592 5.94678 169.827 5.21661C169.062 4.48643 167.965 4.12134 166.486 4.12134H153.021C151.542 4.12134 150.445 4.48643 149.68 5.21661C148.915 5.94678 148.558 7.12028 148.558 8.73709V21.2283C148.558 22.8712 148.915 24.0708 149.68 24.801C150.445 25.5311 151.542 25.8962 153.021 25.8962ZM154.296 8.24162H157.152V21.2283C157.152 21.3848 157.127 21.5152 157.05 21.5934C156.948 21.6977 156.795 21.7499 156.591 21.7499H154.296C154.092 21.7499 153.964 21.7238 153.862 21.6195C153.76 21.5152 153.735 21.3848 153.735 21.2283V8.84141C153.735 8.68494 153.76 8.55455 153.862 8.42416C153.964 8.29377 154.092 8.24162 154.296 8.24162Z" fill="#454055"/>
<path d="M72 41.0474C72 42.0644 72.4845 42.5599 73.4791 42.5599H81.7419C82.7365 42.5599 83.2465 42.0644 83.2465 41.0474V38.3874C83.2465 37.3704 82.7365 36.8489 81.7419 36.8489H73.4791C72.4845 36.8489 72 37.3704 72 38.3874V41.0474ZM72 33.3023C72 34.3193 72.4845 34.8148 73.4791 34.8148H81.7419C82.7365 34.8148 83.2465 34.3193 83.2465 33.3023V30.6424C83.2465 29.6253 82.7365 29.1299 81.7419 29.1299H73.4791C72.4845 29.1299 72 29.6253 72 30.6424V33.3023ZM72 50.4614C72 51.4784 72.4845 52 73.4791 52H88.041C92.3509 52 94.493 49.7834 94.493 45.3763V36.7706C94.493 35.7275 94.0085 35.232 93.0139 35.232H87.8114C86.8168 35.232 86.3068 35.7275 86.3068 36.7706V45.272C86.3068 45.95 85.9753 46.289 85.3122 46.289H73.4791C72.4845 46.289 72 46.7845 72 47.8015V50.4614Z" fill="#454055"/>
<path d="M97.5278 50.8526C97.5278 51.8696 98.0124 52.1825 99.007 51.8175L107.091 49.2618C109.029 48.6621 110.738 47.9319 112.166 47.0713L118.516 51.5306C119.511 52.2347 119.995 52.0782 119.995 51.009V47.1495C119.995 46.1064 119.511 45.2459 118.516 44.5939L116.425 43.1336C117.471 41.4907 118.006 39.6392 118.006 37.553V30.6424C118.006 29.6253 117.522 29.1299 116.527 29.1299H98.9815C97.9869 29.1299 97.5023 29.6253 97.5023 30.6424V33.3023C97.5023 34.3193 97.9869 34.8148 98.9815 34.8148H109.82V36.9271C109.82 39.8739 108.494 41.8558 105.867 42.925L99.007 45.0894C98.0124 45.3763 97.5278 46.0282 97.5278 47.0452V50.8526Z" fill="#454055"/>
<path d="M123.005 41.0474C123.005 42.0644 123.489 42.5599 124.484 42.5599H130.171V45.272C130.171 45.95 129.839 46.289 129.176 46.289H124.484C123.489 46.289 123.005 46.7845 123.005 47.8015V50.4614C123.005 51.4784 123.489 52 124.484 52H131.879C136.189 52 138.357 49.7834 138.357 45.3763V42.5599H144.019C145.013 42.5599 145.498 42.0644 145.498 41.0474V38.3874C145.498 37.3704 145.013 36.8489 144.019 36.8489H124.484C123.489 36.8489 123.005 37.3704 123.005 38.3874V41.0474ZM123.005 33.3023C123.005 34.3193 123.489 34.8148 124.484 34.8148H144.019C145.013 34.8148 145.498 34.3193 145.498 33.3023V30.6424C145.498 29.6253 145.013 29.1299 144.019 29.1299H124.484C123.489 29.1299 123.005 29.6253 123.005 30.6424V33.3023Z" fill="#454055"/>
<path d="M161.921 39.7696C160.927 39.7696 160.595 40.265 160.927 41.2821L162.457 46.289H157.356L164.726 30.1469C165.236 29.1299 164.981 28.6083 163.987 28.6083H159.09C158.096 28.6083 157.331 29.1299 156.846 30.1469L148.685 48.0101C148.558 48.3752 148.507 48.7403 148.507 49.1315C148.507 49.9399 148.762 50.6179 149.298 51.1655C149.833 51.7131 150.496 52 151.287 52H168.22C169.011 52 169.674 51.7131 170.209 51.1655C170.745 50.6179 171 49.9399 171 49.1315C171 48.7403 170.923 48.3752 170.821 48.0101L168.73 41.2821C168.399 40.265 167.736 39.7696 166.716 39.7696H161.921Z" fill="#454055"/>
</svg>
