<svg width="327" height="74" viewBox="0 0 327 74" fill="none" xmlns="http://www.w3.org/2000/svg">
<path d="M103.18 24.5C105.513 21.7667 108.346 19.8333 111.68 18.7C115.08 17.5667 119.113 17 123.78 17L121.48 28.9C120.346 28.7 119.313 28.6 118.38 28.6C108.18 28.6 102.013 33.9667 99.8797 44.7L94.5797 71H82.0797L92.6797 17.6H104.58L103.18 24.5ZM143.137 53.1C143.003 54.1667 142.937 54.9333 142.937 55.4C142.937 59.4 145.037 61.4 149.237 61.4C151.837 61.4 154.17 60.7 156.237 59.3L158.437 68.5C155.037 70.6333 150.737 71.7 145.537 71.7C140.937 71.7 137.237 70.4333 134.437 67.9C131.637 65.3667 130.237 61.8667 130.237 57.4C130.237 55.9333 130.37 54.5333 130.637 53.2L135.737 28H127.037L129.037 18H137.737L140.137 5.8H152.637L150.137 18H164.537L162.537 28H148.137L143.137 53.1ZM189.02 24.5C191.353 21.7667 194.186 19.8333 197.52 18.7C200.92 17.5667 204.953 17 209.62 17L207.32 28.9C206.186 28.7 205.153 28.6 204.22 28.6C194.02 28.6 187.853 33.9667 185.72 44.7L180.42 71H167.92L178.52 17.6H190.42L189.02 24.5ZM272.312 17.6L261.612 71H249.712L250.912 65.1C246.112 69.5 240.078 71.7 232.812 71.7C226.945 71.7 222.245 70.1333 218.712 67C215.245 63.8 213.512 59.3333 213.512 53.6C213.512 51.4667 213.745 49.3333 214.212 47.2L220.112 17.6H232.612L226.712 46.9C226.445 48.2333 226.312 49.6 226.312 51C226.312 54.1333 227.178 56.5333 228.912 58.2C230.712 59.8667 233.378 60.7 236.912 60.7C241.445 60.7 245.212 59.4333 248.212 56.9C251.212 54.3 253.212 50.4333 254.212 45.3L259.812 17.6H272.312ZM296.178 71.7C291.645 71.7 287.311 71.1667 283.178 70.1C279.111 68.9667 275.945 67.5667 273.678 65.9L278.878 56.3C281.078 57.9 283.845 59.1667 287.178 60.1C290.511 61.0333 293.945 61.5 297.478 61.5C301.478 61.5 304.478 60.9667 306.478 59.9C308.545 58.7667 309.578 57.1667 309.578 55.1C309.578 53.5 308.711 52.3333 306.978 51.6C305.311 50.8667 302.645 50.1 298.978 49.3C295.178 48.5667 292.045 47.8 289.578 47C287.178 46.1333 285.078 44.7667 283.278 42.9C281.545 40.9667 280.678 38.3333 280.678 35C280.678 29.4667 282.978 25.1 287.578 21.9C292.245 18.6333 298.411 17 306.078 17C309.745 17 313.311 17.4333 316.778 18.3C320.245 19.1 323.078 20.2 325.278 21.6L320.678 31.2C318.478 29.8 315.978 28.7667 313.178 28.1C310.445 27.4333 307.678 27.1 304.878 27.1C300.945 27.1 297.945 27.7 295.878 28.9C293.878 30.1 292.878 31.6667 292.878 33.6C292.878 35.3333 293.745 36.6 295.478 37.4C297.278 38.1333 300.045 38.9 303.778 39.7C307.511 40.4333 310.578 41.2333 312.978 42.1C315.378 42.9 317.445 44.2333 319.178 46.1C320.911 47.9667 321.778 50.5 321.778 53.7C321.778 59.4333 319.445 63.8667 314.778 67C310.111 70.1333 303.911 71.7 296.178 71.7Z" fill="#286F43"/>
<path d="M47.92 71.456C42.6507 71.456 37.8627 70.2907 33.556 67.96C29.3 65.5787 25.956 62.336 23.524 58.232C21.1427 54.128 19.952 49.5173 19.952 44.4C19.952 39.2827 21.1427 34.672 23.524 30.568C25.956 26.464 29.3 23.2467 33.556 20.916C37.8627 18.5347 42.6507 17.344 47.92 17.344C53.1893 17.344 57.9267 18.5093 62.132 20.84C66.388 23.1707 69.732 26.4133 72.164 30.568C74.596 34.672 75.812 39.2827 75.812 44.4C75.812 49.5173 74.596 54.1533 72.164 58.308C69.732 62.412 66.388 65.6293 62.132 67.96C57.9267 70.2907 53.1893 71.456 47.92 71.456ZM47.92 66.44C52.1253 66.44 55.9253 65.5027 59.32 63.628C62.7147 61.7027 65.3747 59.068 67.3 55.724C69.2253 52.3293 70.188 48.5547 70.188 44.4C70.188 40.2453 69.2253 36.496 67.3 33.152C65.3747 29.7573 62.7147 27.1227 59.32 25.248C55.9253 23.3227 52.1253 22.36 47.92 22.36C43.7147 22.36 39.8893 23.3227 36.444 25.248C33.0493 27.1227 30.364 29.7573 28.388 33.152C26.4627 36.496 25.5 40.2453 25.5 44.4C25.5 48.5547 26.4627 52.3293 28.388 55.724C30.364 59.068 33.0493 61.7027 36.444 63.628C39.8893 65.5027 43.7147 66.44 47.92 66.44Z" fill="#FDBD3F"/>
<path d="M33.556 67.96L32.5794 69.7054L32.5917 69.7122L32.6041 69.7189L33.556 67.96ZM23.524 58.232L21.7941 59.2358L21.7987 59.2437L21.8034 59.2516L23.524 58.232ZM23.524 30.568L21.8034 29.5484L21.7987 29.5563L21.7941 29.5642L23.524 30.568ZM33.556 20.916L34.5166 22.6702L34.5238 22.6663L33.556 20.916ZM62.132 20.84L61.1625 22.5893L61.1714 22.5942L62.132 20.84ZM72.164 30.568L70.4379 31.5784L70.4434 31.5876L72.164 30.568ZM72.164 58.308L73.8846 59.3276L73.89 59.3184L72.164 58.308ZM62.132 67.96L61.1714 66.2058L61.1625 66.2107L62.132 67.96ZM59.32 63.628L60.2868 65.3788L60.2968 65.3733L60.3067 65.3677L59.32 63.628ZM67.3 55.724L69.0333 56.7219L69.0397 56.7107L67.3 55.724ZM67.3 33.152L65.5603 34.1387L65.5668 34.1499L67.3 33.152ZM59.32 25.248L58.3333 26.9877L58.3432 26.9933L58.3532 26.9988L59.32 25.248ZM36.444 25.248L37.4109 26.9988L37.4196 26.9939L36.444 25.248ZM28.388 33.152L26.6595 32.1458L26.6548 32.1541L28.388 33.152ZM28.388 55.724L26.6483 56.7107L26.6571 56.7261L26.6661 56.7415L28.388 55.724ZM36.444 63.628L35.4573 65.3677L35.4726 65.3764L35.4881 65.3848L36.444 63.628ZM47.92 69.456C42.9571 69.456 38.5002 68.3616 34.5079 66.2011L32.6041 69.7189C37.2251 72.2197 42.3443 73.456 47.92 73.456V69.456ZM34.5326 66.2146C30.577 64.0014 27.4927 61.0061 25.2446 57.2124L21.8034 59.2516C24.4193 63.6659 28.023 67.1559 32.5794 69.7054L34.5326 66.2146ZM25.2539 57.2282C23.0633 53.453 21.952 49.1934 21.952 44.4H17.952C17.952 49.8413 19.222 54.803 21.7941 59.2358L25.2539 57.2282ZM21.952 44.4C21.952 39.6066 23.0633 35.347 25.2539 31.5718L21.7941 29.5642C19.222 33.997 17.952 38.9587 17.952 44.4H21.952ZM25.2446 31.5876C27.4904 27.7977 30.5696 24.8317 34.5166 22.6702L32.5954 19.1618C28.0304 21.6616 24.4216 25.1303 21.8034 29.5484L25.2446 31.5876ZM34.5238 22.6663C38.5133 20.4603 42.9645 19.344 47.92 19.344V15.344C42.3368 15.344 37.212 16.609 32.5882 19.1657L34.5238 22.6663ZM47.92 19.344C52.8835 19.344 57.2817 20.4385 61.1625 22.5893L63.1015 19.0907C58.5716 16.5802 53.4952 15.344 47.92 15.344V19.344ZM61.1714 22.5942C65.1122 24.7523 68.1905 27.739 70.438 31.5784L73.89 29.5576C71.2735 25.0877 67.6638 21.589 63.0926 19.0858L61.1714 22.5942ZM70.4434 31.5876C72.6792 35.3605 73.812 39.6144 73.812 44.4H77.812C77.812 38.9509 76.5128 33.9835 73.8846 29.5484L70.4434 31.5876ZM73.812 44.4C73.812 49.1854 72.6792 53.4689 70.438 57.2976L73.89 59.3184C76.5128 54.8378 77.812 49.8492 77.812 44.4H73.812ZM70.4434 57.2884C68.1976 61.0783 65.1184 64.0443 61.1714 66.2058L63.0926 69.7142C67.6576 67.2144 71.2665 63.7457 73.8846 59.3276L70.4434 57.2884ZM61.1625 66.2107C57.2817 68.3615 52.8835 69.456 47.92 69.456V73.456C53.4952 73.456 58.5716 72.2198 63.1015 69.7093L61.1625 66.2107ZM47.92 68.44C52.4342 68.44 56.5715 67.4305 60.2868 65.3788L58.3532 61.8772C55.2792 63.5748 51.8165 64.44 47.92 64.44V68.44ZM60.3067 65.3677C64.0082 63.2683 66.9276 60.3791 69.0332 56.7219L65.5668 54.7261C63.8217 57.7569 61.4211 60.137 58.3333 61.8883L60.3067 65.3677ZM69.0397 56.7107C71.1467 52.9957 72.188 48.8774 72.188 44.4H68.188C68.188 48.2319 67.304 51.663 65.5603 54.7373L69.0397 56.7107ZM72.188 44.4C72.188 39.9228 71.1467 35.8248 69.0332 32.1541L65.5668 34.1499C67.304 37.1672 68.188 40.5678 68.188 44.4H72.188ZM69.0397 32.1653C66.9334 28.4517 64.0069 25.5516 60.2869 23.4972L58.3532 26.9988C61.4225 28.6938 63.8159 31.063 65.5603 34.1387L69.0397 32.1653ZM60.3067 23.5083C56.588 21.3992 52.4435 20.36 47.92 20.36V24.36C51.8071 24.36 55.2627 25.2461 58.3333 26.9877L60.3067 23.5083ZM47.92 20.36C43.3962 20.36 39.2314 21.3992 35.4684 23.5021L37.4196 26.9939C40.5472 25.2461 44.0331 24.36 47.92 24.36V20.36ZM35.4772 23.4972C31.7617 25.549 28.8149 28.4429 26.6595 32.1459L30.1165 34.1581C31.9131 31.0717 34.337 28.6963 37.4108 26.9988L35.4772 23.4972ZM26.6548 32.1541C24.5413 35.8248 23.5 39.9228 23.5 44.4H27.5C27.5 40.5678 28.384 37.1672 30.1212 34.1499L26.6548 32.1541ZM23.5 44.4C23.5 48.8774 24.5413 52.9957 26.6483 56.7107L30.1277 54.7373C28.384 51.663 27.5 48.2319 27.5 44.4H23.5ZM26.6661 56.7415C28.8208 60.3878 31.7602 63.2708 35.4573 65.3677L37.4307 61.8883C34.3384 60.1345 31.9072 57.7482 30.1099 54.7065L26.6661 56.7415ZM35.4881 65.3848C39.2478 67.4305 43.4055 68.44 47.92 68.44V64.44C44.0238 64.44 40.5309 63.5748 37.3999 61.8712L35.4881 65.3848Z" fill="#286F43"/>
</svg>
