<svg width="200" height="100" viewBox="0 0 200 100" fill="none" xmlns="http://www.w3.org/2000/svg">
<path d="M16.25 37.2C16.25 37.5 16.15 37.75 15.85 37.95C15.6 38.15 15.35 38.2 15.05 38.2H14.35C13.95 38.2 13.7 38.15 13.5 37.95C13.3 37.75 13.25 37.5 13.25 37.2V25.95C13.25 25.65 13.3 25.4 13.5 25.15C13.7 24.9 13.95 24.8 14.35 24.8H16.25V37.2ZM5.15 10.15H16.3V16.9H11.85C8.95 16.9 6.8 17.6 5.3 19.05C3.8 20.45 3.1 22.7 3.1 25.8V37.15C3.1 40.3 3.8 42.6 5.3 44C6.8 45.4 8.95 46.1 11.85 46.1H17.65C20.5 46.1 22.65 45.4 24.15 44C25.65 42.6 26.45 40.3 26.45 37.15V24.8H33.3V37.15C33.3 37.45 33.2 37.7 33.05 37.9C32.85 38.1 32.55 38.15 32.2 38.15H31.35C30.6 38.15 30.05 38.3 29.7 38.6C29.35 38.9 29.15 39.45 29.15 40.2V44.1C29.15 44.9 29.35 45.45 29.7 45.7C30.05 45.95 30.6 46.1 31.35 46.1H34.65C37.55 46.1 39.75 45.4 41.25 44C42.7 42.6 43.45 40.3 43.45 37.15V24.8H44.9C45.7 24.8 46.25 24.6 46.55 24.25C46.85 23.95 46.95 23.4 46.95 22.7V19.15C46.95 18.25 46.85 17.6 46.55 17.3C46.25 17 45.7 16.9 44.9 16.9H43.45V12.25C43.45 11.7 43.3 11.25 42.9 10.85C42.55 10.45 42.1 10.25 41.6 10.25H35.1C34.6 10.25 34.2 10.45 33.85 10.85C33.5 11.25 33.3 11.7 33.3 12.25V16.9H26.45V4.15C26.45 3.65 26.25 3.2 25.85 2.8C25.45 2.4 24.95 2.25 24.35 2.25H5.15C4.35 2.25 3.8 2.35 3.5 2.65C3.2 2.95 3.1 3.6 3.1 4.5V8.05C3.1 8.75 3.2 9.3 3.5 9.65C3.8 9.95 4.35 10.15 5.15 10.15ZM94.8 46.1C95.5 46.1 96.1 45.95 96.45 45.7C96.8 45.45 96.95 44.9 96.95 44.1V40.2C96.95 39.45 96.8 38.9 96.45 38.6C96.1 38.3 95.5 38.15 94.8 38.15H85.2C84.8 38.15 84.55 38.1 84.35 37.9C84.15 37.7 84.1 37.45 84.1 37.15V28.45C84.1 25.3 83.35 23 81.85 21.6C80.4 20.2 78.2 19.5 75.3 19.5H71.8L76.85 4.25C77.15 3.4 77.2 2.85 77.1 2.6C76.95 2.3 76.45 2.2 75.7 2.2H68.55C67.95 2.2 67.5 2.3 67.2 2.6C66.9 2.85 66.55 3.4 66.15 4.25L53.1 44.05C53 44.65 53.15 45.15 53.55 45.55C53.95 45.95 54.45 46.15 55.05 46.15H61C61.8 46.15 62.35 46.05 62.7 45.75C63 45.45 63.35 44.9 63.65 44.05L69.2 27.4H72.8C73.2 27.4 73.5 27.5 73.65 27.7C73.85 27.85 73.95 28.15 73.95 28.55V37.15C73.95 40.3 74.65 42.6 76.15 44C77.65 45.4 79.8 46.1 82.7 46.1H94.8ZM128.65 13.5V26.25H123.85C120.95 26.25 118.75 26.95 117.25 28.4C115.8 29.85 115.05 32.1 115.05 35.2V37.15C115.05 40.3 115.8 42.6 117.25 44C118.75 45.4 120.95 46.1 123.85 46.1H130.1C132.9 46.1 135.05 45.4 136.55 44C138.05 42.6 138.85 40.3 138.85 37.15V36.2L144.95 38.9C145.55 39.2 146.05 39.2 146.45 38.8C146.85 38.4 147.05 37.9 147 37.35V32.75C147.05 31.95 146.95 31.45 146.65 31.2C146.4 30.9 145.8 30.55 144.95 30.1L138.85 27.35V19.5H144.8C145.65 19.5 146.25 19.35 146.55 19C146.85 18.65 146.95 18.15 146.95 17.4V13.9C146.95 12.95 146.85 12.35 146.55 12.05C146.25 11.75 145.65 11.6 144.8 11.6H130.8C130.15 11.6 129.65 11.8 129.25 12.2C128.9 12.6 128.7 13 128.65 13.5ZM128.6 37.2C128.6 37.5 128.5 37.75 128.2 37.95C127.95 38.15 127.7 38.2 127.4 38.2H126.3C125.95 38.2 125.65 38.15 125.45 37.95C125.3 37.75 125.2 37.5 125.2 37.2V35.35C125.2 35.05 125.3 34.75 125.45 34.55C125.65 34.3 125.95 34.15 126.3 34.15H127.4C127.7 34.15 127.95 34.3 128.2 34.55C128.5 34.75 128.6 35.05 128.6 35.35V37.2ZM105.1 17.55H108.3L103.25 32.75C103.1 33.35 103.15 33.85 103.55 34.25C103.95 34.65 104.45 34.85 105.05 34.8H110.5C111.3 34.85 111.9 34.7 112.2 34.4C112.55 34.1 112.85 33.55 113.1 32.75L118.15 17.55H123.75C124.6 17.55 125.15 17.4 125.45 17.05C125.75 16.7 125.9 16.2 125.9 15.45V11.95C125.9 11 125.75 10.4 125.45 10.1C125.15 9.8 124.6 9.65 123.75 9.65H120.8L122.55 4.45C122.85 3.6 122.9 3.05 122.8 2.8C122.65 2.5 122.15 2.35 121.4 2.35H114.85C114.25 2.35 113.75 2.5 113.5 2.8C113.2 3.05 112.9 3.6 112.65 4.45L110.95 9.65H105.1C104.3 9.65 103.75 9.8 103.45 10.1C103.15 10.4 103.05 11 103.05 11.95V15.45C103.05 16.2 103.15 16.7 103.45 17.05C103.75 17.4 104.3 17.55 105.1 17.55ZM161.8 46.1H171.3C174.2 46.1 176.4 45.4 177.85 44C179.35 42.6 180.1 40.3 180.1 37.15V12.25H185.7C186.1 12.25 186.35 12.35 186.55 12.6C186.75 12.85 186.8 13.1 186.8 13.4V37.15C186.8 37.45 186.75 37.7 186.55 37.9C186.35 38.1 186.1 38.15 185.7 38.15H184.2C183.45 38.15 182.9 38.3 182.5 38.6C182.15 38.9 182 39.45 182 40.2V44.1C182 44.9 182.15 45.45 182.5 45.7C182.9 45.95 183.45 46.1 184.2 46.1H188.2C191.1 46.1 193.25 45.4 194.75 44C196.25 42.6 196.95 40.3 196.95 37.15V13.2C196.95 10.1 196.25 7.85 194.75 6.45C193.25 5.05 191.1 4.35 188.2 4.35H161.8C158.9 4.35 156.75 5.05 155.25 6.45C153.75 7.85 153.05 10.1 153.05 13.2V37.15C153.05 40.3 153.75 42.6 155.25 44C156.75 45.4 158.9 46.1 161.8 46.1ZM164.3 12.25H169.9V37.15C169.9 37.45 169.85 37.7 169.7 37.85C169.5 38.05 169.2 38.15 168.8 38.15H164.3C163.9 38.15 163.65 38.1 163.45 37.9C163.25 37.7 163.2 37.45 163.2 37.15V13.4C163.2 13.1 163.25 12.85 163.45 12.6C163.65 12.35 163.9 12.25 164.3 12.25ZM2.95 75.15C2.95 77.1 3.9 78.05 5.85 78.05H22.05C24 78.05 25 77.1 25 75.15V70.05C25 68.1 24 67.1 22.05 67.1H5.85C3.9 67.1 2.95 68.1 2.95 70.05V75.15ZM2.95 60.3C2.95 62.25 3.9 63.2 5.85 63.2H22.05C24 63.2 25 62.25 25 60.3V55.2C25 53.25 24 52.3 22.05 52.3H5.85C3.9 52.3 2.95 53.25 2.95 55.2V60.3ZM2.95 93.2C2.95 95.15 3.9 96.15 5.85 96.15H34.4C42.85 96.15 47.05 91.9 47.05 83.45V66.95C47.05 64.95 46.1 64 44.15 64H33.95C32 64 31 64.95 31 66.95V83.25C31 84.55 30.35 85.2 29.05 85.2H5.85C3.9 85.2 2.95 86.15 2.95 88.1V93.2ZM53 93.95C53 95.9 53.95 96.5 55.9 95.8L71.75 90.9C75.55 89.75 78.9 88.35 81.7 86.7L94.15 95.25C96.1 96.6 97.05 96.3 97.05 94.25V86.85C97.05 84.85 96.1 83.2 94.15 81.95L90.05 79.15C92.1 76 93.15 72.45 93.15 68.45V55.2C93.15 53.25 92.2 52.3 90.25 52.3H55.85C53.9 52.3 52.95 53.25 52.95 55.2V60.3C52.95 62.25 53.9 63.2 55.85 63.2H77.1V67.25C77.1 72.9 74.5 76.7 69.35 78.75L55.9 82.9C53.95 83.45 53 84.7 53 86.65V93.95ZM102.95 75.15C102.95 77.1 103.9 78.05 105.85 78.05H117V83.25C117 84.55 116.35 85.2 115.05 85.2H105.85C103.9 85.2 102.95 86.15 102.95 88.1V93.2C102.95 95.15 103.9 96.15 105.85 96.15H120.35C128.8 96.15 133.05 91.9 133.05 83.45V78.05H144.15C146.1 78.05 147.05 77.1 147.05 75.15V70.05C147.05 68.1 146.1 67.1 144.15 67.1H105.85C103.9 67.1 102.95 68.1 102.95 70.05V75.15ZM102.95 60.3C102.95 62.25 103.9 63.2 105.85 63.2H144.15C146.1 63.2 147.05 62.25 147.05 60.3V55.2C147.05 53.25 146.1 52.3 144.15 52.3H105.85C103.9 52.3 102.95 53.25 102.95 55.2V60.3ZM179.25 72.7C177.3 72.7 176.65 73.65 177.3 75.6L180.3 85.2H170.3L184.75 54.25C185.75 52.3 185.25 51.3 183.3 51.3H173.7C171.75 51.3 170.25 52.3 169.3 54.25L153.3 88.5C153.05 89.2 152.95 89.9 152.95 90.65C152.95 92.2 153.45 93.5 154.5 94.55C155.55 95.6 156.85 96.15 158.4 96.15H191.6C193.15 96.15 194.45 95.6 195.5 94.55C196.55 93.5 197.05 92.2 197.05 90.65C197.05 89.9 196.9 89.2 196.7 88.5L192.6 75.6C191.95 73.65 190.65 72.7 188.65 72.7H179.25Z" fill="#454055"/>
</svg>
