<svg width="165" height="170" viewBox="0 0 165 170" fill="none" xmlns="http://www.w3.org/2000/svg">
<path d="M43.6526 104.82C43.9124 104.97 44.0423 105.145 43.9557 105.395C43.9124 105.62 43.7392 105.77 43.4794 105.92L42.8732 106.27C42.5269 106.47 42.2671 106.57 41.9207 106.57C41.5743 106.57 41.3145 106.47 41.0547 106.32L31.3127 100.696C31.0529 100.546 30.8797 100.396 30.8364 100.171C30.7931 99.9458 30.923 99.7708 31.2694 99.5708L32.9147 98.621L43.6526 104.82ZM10.6163 96.8463L20.2717 91.2721L26.1169 94.6466L22.2634 96.8712C19.7521 98.321 18.4965 99.7458 18.4532 101.221C18.3666 102.67 19.7089 104.145 22.3933 105.695L32.2219 111.369C34.9497 112.944 37.5476 113.744 40.0589 113.694C42.5702 113.644 45.0381 112.919 47.5494 111.469L52.572 108.569C55.04 107.145 56.2956 105.72 56.3822 104.27C56.4688 102.82 55.1698 101.271 52.4421 99.6958L41.7475 93.5218L47.6793 90.0973L58.3739 96.2713C58.6337 96.4213 58.7636 96.5963 58.8069 96.7713C58.8069 96.9712 58.5904 97.1462 58.2873 97.3212L57.5512 97.7461C56.9018 98.1211 56.5554 98.471 56.5121 98.796C56.4688 99.1209 56.7719 99.4959 57.4213 99.8708L60.7986 101.821C61.4913 102.22 62.1408 102.395 62.6604 102.345C63.18 102.295 63.7861 102.095 64.4356 101.721L67.2933 100.071C69.8045 98.621 71.1035 97.1712 71.1901 95.7214C71.2334 94.2966 69.8911 92.7719 67.1634 91.1971L56.4688 85.023L57.7244 84.2981C58.4172 83.8982 58.7203 83.5233 58.677 83.1983C58.677 82.8984 58.2873 82.5734 57.6811 82.2235L54.607 80.4487C53.8276 79.9988 53.1781 79.7238 52.6586 79.7238C52.139 79.7238 51.5761 79.9488 50.8834 80.3487L49.6277 81.0736L45.601 78.749C45.1247 78.474 44.6052 78.324 43.9124 78.324C43.2629 78.299 42.7 78.424 42.2671 78.674L36.6383 81.9235C36.2054 82.1735 36.0322 82.4734 36.0755 82.8484C36.1188 83.2233 36.3352 83.5483 36.8115 83.8232L40.8382 86.1479L34.9064 89.5723L23.8655 83.1983C23.4325 82.9483 22.8696 82.8234 22.1768 82.8234C21.4841 82.8234 20.9212 82.9983 20.4016 83.2983L3.77521 92.8968C3.08245 93.2968 2.69277 93.6217 2.69277 93.9217C2.69277 94.2216 3.16904 94.5966 3.94841 95.0465L7.02256 96.8213C7.62873 97.1712 8.1916 97.3962 8.75448 97.4212C9.27405 97.4212 9.92352 97.2462 10.6163 96.8463Z" fill="#454055"/>
<path d="M84.0446 145.671C84.0447 147.621 84.8673 148.696 86.5559 148.971L100.281 151.996C103.571 152.746 106.472 153.021 108.896 152.771L119.678 167.545C121.366 169.87 122.189 170.045 122.189 167.995L122.188 160.596C122.188 158.596 121.366 156.471 119.677 154.246L116.127 149.397C117.902 147.272 118.811 144.247 118.811 140.248L118.81 126.999C118.81 125.049 117.988 123.624 116.299 122.649L86.5112 105.45C84.8226 104.475 84 104.95 84.0001 106.9L84.0003 111.999C84.0003 113.949 84.823 115.374 86.5115 116.349L104.912 126.973L104.913 131.023C104.913 136.673 102.661 139.172 98.202 138.647L86.5555 136.072C84.8669 135.647 84.0443 136.422 84.0444 138.372L84.0446 145.671Z" fill="#454055"/>
<path d="M42.0007 143.897C42.0006 145.847 42.8232 146.322 44.5118 145.347L58.5398 137.247C60.2283 136.272 61.0943 134.822 61.0943 132.872L61.0945 127.773C61.0946 125.823 60.2287 125.323 58.5401 126.298L44.5121 134.398C42.8236 135.373 42.0009 136.848 42.0008 138.797L42.0007 143.897ZM42.0011 129.048C42.0011 130.998 42.8237 131.473 44.5122 130.498L58.5402 122.398C60.2288 121.424 61.0948 119.974 61.0948 118.024L61.095 112.924C61.095 110.974 60.2292 110.525 58.5406 111.5L44.5126 119.599C42.824 120.574 42.0014 121.999 42.0013 123.949L42.0011 129.048ZM42.0001 161.945C42 163.895 42.8226 164.42 44.5112 163.445L69.2334 149.171C76.5505 144.946 80.1875 138.596 80.1878 130.147L80.1883 113.649C80.1884 111.649 79.3658 111.174 77.6772 112.149L68.8447 117.249C67.1562 118.224 66.2902 119.673 66.2902 121.673L66.2896 137.972C66.2896 139.272 65.7267 140.247 64.601 140.897L44.5115 152.496C42.823 153.471 42.0003 154.896 42.0003 156.846L42.0001 161.945Z" fill="#454055"/>
<path d="M120.18 119.809C120.786 120.158 121.435 120.383 121.955 120.433C122.475 120.483 123.081 120.283 123.773 119.884L127.151 117.934C127.8 117.559 128.147 117.209 128.103 116.884C128.06 116.559 127.67 116.184 127.064 115.834L118.751 111.035C118.405 110.835 118.231 110.685 118.231 110.485C118.231 110.285 118.405 110.135 118.664 109.985L126.198 105.636C128.926 104.061 130.268 102.536 130.182 101.086C130.138 99.6616 128.839 98.2118 126.328 96.762L123.297 95.0123L140.876 89.9131C141.872 89.6381 142.392 89.3881 142.521 89.2132C142.651 88.9882 142.305 88.6882 141.656 88.3133L135.464 84.7388C134.944 84.4389 134.468 84.2639 133.948 84.2639C133.472 84.2389 132.693 84.3389 131.61 84.5639L85.8445 97.9368C85.2383 98.1868 84.9352 98.5118 84.9352 98.9117C84.9352 99.3116 85.195 99.6616 85.7146 99.9615L90.8671 102.936C91.5598 103.336 92.1227 103.561 92.6856 103.586C93.2051 103.586 93.9845 103.486 94.9804 103.211L114.205 97.6619L117.322 99.4616C117.668 99.6616 117.842 99.8615 117.798 100.037C117.842 100.211 117.668 100.411 117.322 100.611L109.875 104.911C107.147 106.486 105.762 107.985 105.848 109.435C105.935 110.885 107.19 112.31 109.702 113.759L120.18 119.809Z" fill="#454055"/>
<rect width="43.9958" height="43.9958" transform="matrix(0.866041 -0.499972 0.866041 0.499972 44 21.9967)" fill="#454055"/>
<rect width="43.9958" height="43.9958" transform="matrix(0.866009 0.500028 3.18609e-05 1 42 25)" fill="#454055"/>
<rect width="43.9958" height="43.9958" transform="matrix(0.866009 0.500028 3.18609e-05 1 0 104)" fill="#454055"/>
<rect width="43.9958" height="43.9958" transform="matrix(0.866009 -0.500028 -3.18609e-05 1 84.0014 46.9991)" fill="#454055"/>
<rect width="43.9958" height="43.9958" transform="matrix(0.866009 -0.500028 -3.18609e-05 1 126.001 125.999)" fill="#454055"/>
</svg>
