<svg width="67" height="61" viewBox="0 0 67 61" fill="none" xmlns="http://www.w3.org/2000/svg">
<path d="M3.8 0.903076H63.2C64.0752 0.903076 64.9146 1.25075 65.5335 1.86962C66.1523 2.48849 66.5 3.32786 66.5 4.20308V57.0031C66.5 57.8783 66.1523 58.7177 65.5335 59.3365C64.9146 59.9554 64.0752 60.3031 63.2 60.3031H3.8C2.92479 60.3031 2.08542 59.9554 1.46655 59.3365C0.847677 58.7177 0.5 57.8783 0.5 57.0031V4.20308C0.5 3.32786 0.847677 2.48849 1.46655 1.86962C2.08542 1.25075 2.92479 0.903076 3.8 0.903076ZM59.9 24.0031H7.1V53.7031H59.9V24.0031ZM10.4 10.8031V17.4031H17V10.8031H10.4ZM23.6 10.8031V17.4031H30.2V10.8031H23.6Z" fill="white"/>
</svg>
