<svg width="66" height="67" viewBox="0 0 66 67" fill="none" xmlns="http://www.w3.org/2000/svg">
<path d="M33 66.9031C14.7741 66.9031 0 52.129 0 33.9031C0 15.6772 14.7741 0.903137 33 0.903137C51.2259 0.903137 66 15.6772 66 33.9031C66 52.129 51.2259 66.9031 33 66.9031ZM25.443 59.2042C22.1873 52.2984 20.3012 44.8268 19.8891 37.2031H6.8046C7.44673 42.2815 9.54994 47.0641 12.8587 50.9698C16.1674 54.8755 20.5392 57.7361 25.443 59.2042ZM26.499 37.2031C26.9973 45.2518 29.2974 52.8121 33 59.4847C36.8027 52.6358 39.024 45.0224 39.501 37.2031H26.499ZM59.1954 37.2031H46.1109C45.6988 44.8268 43.8127 52.2984 40.557 59.2042C45.4608 57.7361 49.8326 54.8755 53.1413 50.9698C56.4501 47.0641 58.5533 42.2815 59.1954 37.2031ZM6.8046 30.6031H19.8891C20.3012 22.9794 22.1873 15.5079 25.443 8.60204C20.5392 10.0701 16.1674 12.9308 12.8587 16.8365C9.54994 20.7422 7.44673 25.5248 6.8046 30.6031ZM26.5023 30.6031H39.4977C39.0217 22.7841 36.8015 15.1708 33 8.32154C29.1973 15.1705 26.976 22.7839 26.499 30.6031H26.5023ZM40.557 8.60204C43.8127 15.5079 45.6988 22.9794 46.1109 30.6031H59.1954C58.5533 25.5248 56.4501 20.7422 53.1413 16.8365C49.8326 12.9308 45.4608 10.0701 40.557 8.60204Z" fill="white"/>
</svg>
