<svg width="67" height="64" viewBox="0 0 67 64" fill="none" xmlns="http://www.w3.org/2000/svg">
<path d="M7.10012 43.8473H59.9V7.50989H7.10012V43.8473ZM36.8001 50.4542V57.061H50V63.6678H17.0001V57.061H30.2001V50.4542H3.77373C3.34039 50.4516 2.91183 50.3634 2.5126 50.1947C2.11336 50.026 1.75132 49.7801 1.4472 49.471C1.14309 49.162 0.902893 48.7959 0.740376 48.3938C0.577859 47.9917 0.496219 47.5614 0.500134 47.1276V4.22961C0.500134 2.39291 2.00163 0.903076 3.77373 0.903076H63.2264C65.0348 0.903076 66.5 2.38631 66.5 4.22961V47.1276C66.5 48.9643 64.9985 50.4542 63.2264 50.4542H36.8001Z" fill="white"/>
</svg>
