<svg width="66" height="61" viewBox="0 0 66 61" fill="none" xmlns="http://www.w3.org/2000/svg">
<path d="M60 30.9031H54V13.6171L30.216 34.9171L6 13.5511V48.9031H36V54.9031H3C2.20435 54.9031 1.44129 54.5871 0.87868 54.0245C0.31607 53.4618 0 52.6988 0 51.9031V3.90314C0 3.10749 0.31607 2.34443 0.87868 1.78182C1.44129 1.21921 2.20435 0.903137 3 0.903137H57C57.7957 0.903137 58.5587 1.21921 59.1213 1.78182C59.6839 2.34443 60 3.10749 60 3.90314V30.9031ZM7.533 6.90314L30.183 26.8891L52.506 6.90314H7.533ZM57 45.9031H66V51.9031H57V60.9031H51V51.9031H42V45.9031H51V36.9031H57V45.9031Z" fill="white"/>
</svg>
